<?xml version="1.0" encoding="UTF-8" standalone="no"?>
<!-- Created with Inkscape (http://www.inkscape.org/) -->

<svg
   width="50.072205mm"
   height="70.103142mm"
   viewBox="0 0 50.072205 70.103142"
   version="1.1"
   id="svg1"
   xml:space="preserve"
   xmlns="http://www.w3.org/2000/svg"
   xmlns:svg="http://www.w3.org/2000/svg"><defs
     id="defs1" /><g
     id="layer3"
     transform="translate(-78.76022,-118.75873)"><path
       style="fill:#ffffff;stroke-width:0.26783"
       d="m 96.910684,158.16295 c 0,0 -9.679411,-0.82427 -9.772237,7.17858 -0.09282,8.00285 9.838663,6.29223 9.838663,6.29223 l 4.67e-4,7.62086 c 0,0 -18.492724,2.14238 -18.214243,-13.86332 0.278479,-16.00569 18.214717,-14.74095 18.214717,-14.74095 z"
       id="path1-2" /><path
       style="fill:#ffffff;stroke-width:0.26783"
       d="m 97.106594,126.29488 c 0,0 -9.679411,-0.82427 -9.772237,7.17858 -0.09282,8.00285 9.838663,6.29223 9.838663,6.29223 l 4.67e-4,7.62086 c 0,0 -18.492724,2.14238 -18.214243,-13.86332 0.278479,-16.00569 18.214717,-14.74095 18.214717,-14.74095 z"
       id="path1" /><rect
       style="mix-blend-mode:normal;fill:#ffffff;stroke-width:0.259277"
       id="rect1"
       width="18.932364"
       height="7.5383134"
       x="109.80771"
       y="139.75319" /><rect
       style="mix-blend-mode:normal;fill:#ffffff;stroke-width:0.259277"
       id="rect2"
       width="18.932364"
       height="7.5383134"
       x="109.90006"
       y="150.9279" /><path
       style="mix-blend-mode:normal;fill:#ffffff;stroke-width:0.264583"
       d="m 100.29535,131.14125 0.0924,57.72062 c 0,0 6.37235,-1.29294 6.37235,-4.98705 0,-3.69413 0.10394,-49.65129 0.10394,-49.65129 0,0 0.148,-7.94115 7.56141,-7.88463 7.2017,0.0549 7.11118,8.31177 7.11118,8.31177 l 7.20354,0.0924 c 0,0 0.20711,-15.93881 -14.01525,-15.93881 -14.22236,0 -14.42948,12.33704 -14.42948,12.33704 z"
       id="path2" /><path
       style="mix-blend-mode:normal;fill:#ffffff;stroke-width:0.25646"
       d="m 109.99174,179.38692 c 0,0 18.67623,1.70847 18.68705,-15.17109 l -6.58881,-0.003 c 0,0 0.31749,7.76997 -12.10408,7.77036 z"
       id="path3" /></g></svg>
